<?xml version="1.0" standalone="no"?>
<!DOCTYPE svg PUBLIC "-//W3C//DTD SVG 20010904//EN"
 "http://www.w3.org/TR/2001/REC-SVG-20010904/DTD/svg10.dtd">
<svg version="1.0" xmlns="http://www.w3.org/2000/svg"
 width="664.000000pt" height="664.000000pt" viewBox="0 0 664.000000 664.000000"
 preserveAspectRatio="xMidYMid meet">
<metadata>
Created by potrace 1.11, written by Peter Selinger 2001-2013
</metadata>
<g transform="translate(0.000000,664.000000) scale(0.100000,-0.100000)"
fill="#000000" stroke="none">
<path d="M5557 5583 c-19 -32 -81 -152 -137 -268 -57 -115 -106 -212 -109
-215 -4 -3 -26 -39 -50 -80 -24 -41 -75 -121 -113 -178 -37 -57 -68 -106 -68
-109 0 -4 -7 -13 -15 -22 -9 -9 -77 -97 -151 -196 -265 -352 -289 -383 -292
-380 -5 5 -10 48 -17 135 -19 272 -40 429 -70 535 -15 54 -39 94 -50 83 -21
-21 -26 -259 -10 -448 23 -271 13 -406 -33 -465 -79 -100 -174 -185 -206 -185
-54 0 -64 73 -65 505 l-1 350 -33 29 c-17 16 -53 47 -78 70 -25 23 -76 68
-114 101 -38 33 -73 65 -79 70 -37 35 -166 135 -174 135 -6 0 -12 4 -14 10 -1
5 -18 13 -37 16 l-34 7 7 -59 c11 -85 11 -85 3 -130 -4 -26 -31 -77 -71 -137
-104 -156 -117 -230 -61 -341 26 -51 73 -97 105 -103 58 -10 130 48 174 141
24 51 47 104 51 116 35 130 75 215 75 162 0 -10 5 -23 12 -30 7 -7 9 -12 6
-12 -4 0 2 -26 13 -57 42 -123 52 -194 53 -378 0 -170 -8 -280 -34 -425 -6
-36 -13 -75 -15 -87 -12 -79 -68 -220 -107 -270 -13 -15 -39 -50 -58 -78 -18
-27 -36 -52 -40 -55 -3 -3 -32 -38 -65 -79 -33 -41 -71 -86 -84 -100 -13 -14
-42 -48 -65 -75 -22 -27 -45 -54 -51 -60 -72 -81 -174 -233 -223 -333 -21 -43
-39 -82 -40 -88 -1 -5 -7 -26 -12 -45 -24 -84 -6 -159 46 -191 38 -23 109 -28
143 -9 12 6 21 7 21 3 0 -4 4 -3 8 2 4 6 23 19 43 29 44 23 115 88 149 136 13
19 27 37 30 40 6 4 79 124 159 260 45 76 188 371 219 452 16 42 35 99 42 127
9 40 24 63 73 113 34 35 96 90 137 123 41 33 77 63 78 68 2 4 9 7 14 7 6 0 18
7 27 15 58 56 133 107 142 98 6 -6 17 -37 25 -69 8 -32 16 -66 18 -74 3 -8 12
-46 21 -85 21 -87 113 -367 126 -379 5 -6 9 -19 9 -31 0 -12 4 -25 9 -31 4 -5
25 -51 45 -103 97 -245 341 -722 409 -798 11 -13 16 -23 11 -23 -5 0 -4 -4 1
-8 6 -4 40 -45 75 -92 125 -165 264 -304 398 -398 239 -167 378 -113 317 122
-24 90 -119 310 -175 406 -5 8 -32 52 -60 98 -27 46 -50 87 -50 92 0 5 -3 10
-8 12 -4 2 -25 28 -46 58 -77 107 -146 169 -186 165 -8 -1 -23 -3 -32 -3 -37
-4 -16 -48 105 -229 48 -73 87 -136 87 -142 0 -5 4 -11 9 -13 4 -1 35 -55 68
-118 52 -99 74 -150 113 -255 4 -11 13 -33 19 -48 17 -44 13 -54 -12 -26 -31
36 -130 149 -142 163 -6 6 -33 40 -60 76 -28 36 -53 67 -56 70 -3 3 -46 64
-95 135 -74 108 -148 230 -260 425 -34 60 -207 418 -259 535 -298 673 -301
683 -260 733 8 9 34 44 59 77 25 33 49 65 53 70 5 6 19 26 33 45 13 19 27 37
30 40 9 8 251 331 325 434 11 16 25 33 30 40 30 34 196 282 263 394 175 289
242 483 180 526 -38 27 -55 19 -91 -41z"/>
<path d="M2385 5069 c-189 -27 -265 -58 -430 -181 -44 -33 -170 -132 -184
-146 -113 -106 -144 -134 -196 -178 -57 -49 -115 -85 -143 -90 -7 -1 -21 14
-31 34 -48 92 -165 182 -236 182 -87 0 -206 -111 -306 -285 -41 -71 -126 -261
-134 -301 -2 -7 -12 -38 -23 -70 -52 -151 -99 -357 -97 -422 2 -46 22 -76 43
-63 18 11 70 140 93 231 11 41 23 84 28 95 5 11 21 52 36 90 97 243 271 501
353 522 37 9 68 -12 92 -61 30 -62 35 -95 34 -206 0 -76 -5 -109 -26 -165 -32
-86 -123 -303 -173 -410 -117 -251 -249 -567 -255 -610 -1 -3 -8 -21 -16 -42
-9 -20 -17 -44 -19 -52 -2 -9 -12 -43 -23 -76 -18 -52 -47 -159 -57 -205 -2
-8 -8 -35 -13 -60 -27 -119 -35 -228 -20 -275 15 -45 50 -73 88 -69 40 5 108
52 151 105 19 23 41 49 50 58 26 26 144 210 180 281 18 36 37 68 43 72 6 4 8
8 3 8 -4 0 0 14 8 30 49 96 211 653 240 830 3 19 8 42 10 50 2 8 7 30 10 48 3
17 8 47 11 65 11 59 13 81 19 172 5 80 14 140 29 212 3 12 10 31 16 42 6 12 8
21 5 21 -8 0 63 130 107 194 22 32 77 96 121 141 194 194 374 289 547 288 98
0 167 -16 266 -64 88 -42 173 -117 209 -186 11 -21 22 -40 25 -43 3 -3 12 -25
19 -50 7 -25 18 -58 24 -75 6 -16 11 -82 11 -145 -1 -94 -6 -131 -28 -205 -15
-49 -31 -92 -35 -95 -5 -3 -12 -16 -16 -30 -9 -28 -51 -97 -72 -118 -7 -7 -13
-16 -13 -20 0 -7 -27 -37 -104 -122 -29 -31 -80 -79 -172 -161 -37 -33 -181
-128 -214 -141 -69 -27 -120 -25 -183 8 -17 9 -45 23 -62 32 -16 8 -32 18 -35
22 -3 3 -34 27 -70 54 -207 154 -376 147 -371 -17 2 -78 58 -142 195 -222 89
-53 149 -97 184 -135 31 -35 94 -168 127 -270 15 -47 33 -98 40 -115 7 -16 16
-41 20 -55 11 -44 61 -174 97 -257 10 -23 18 -45 18 -48 0 -13 109 -224 145
-281 146 -231 363 -447 535 -534 71 -36 160 -48 209 -27 37 15 80 57 97 93 29
61 22 176 -17 278 -17 45 -81 179 -91 191 -5 5 -27 39 -49 75 -23 36 -45 67
-50 68 -5 2 -9 8 -9 14 0 9 -133 178 -191 243 -15 17 -36 39 -46 50 -45 51
-118 105 -139 105 -44 0 -32 -54 36 -159 33 -51 66 -99 73 -106 28 -31 167
-224 167 -233 0 -6 4 -12 9 -14 12 -4 105 -182 119 -228 38 -121 21 -161 -55
-127 -89 39 -181 162 -365 487 -14 25 -42 74 -63 110 -20 36 -41 74 -46 85 -5
11 -17 34 -27 50 -52 86 -260 490 -299 583 -13 29 -23 59 -23 67 0 18 63 48
240 115 221 84 329 149 456 275 113 113 234 301 279 435 1 3 7 18 14 35 37 88
49 162 45 276 -4 130 -6 150 -29 237 -47 177 -184 352 -330 425 -118 57 -267
83 -390 66z"/>
</g>
</svg>
