<?xml version="1.0" standalone="no"?>
<!DOCTYPE svg PUBLIC "-//W3C//DTD SVG 20010904//EN"
 "http://www.w3.org/TR/2001/REC-SVG-20010904/DTD/svg10.dtd">
<svg version="1.0" xmlns="http://www.w3.org/2000/svg"
 width="133.000000pt" height="105.000000pt" viewBox="0 0 133.000000 105.000000"
 preserveAspectRatio="xMidYMid meet">
<metadata>
Created by potrace 1.15, written by Peter Selinger 2001-2017
</metadata>
<g transform="translate(0.000000,105.000000) scale(0.100000,-0.100000)"
fill="#000000" stroke="none">
<path d="M1086 925 c-16 -36 -58 -105 -95 -152 l-66 -87 -3 34 c-5 75 -14 120
-23 120 -5 0 -7 -34 -3 -85 6 -75 5 -88 -12 -106 -44 -49 -49 -44 -49 53 l0
89 -50 44 c-55 49 -69 55 -60 25 4 -13 -1 -30 -14 -46 -24 -31 -26 -53 -8 -78
19 -26 44 -10 60 37 l14 42 12 -38 c15 -44 7 -152 -13 -202 -7 -16 -36 -55
-65 -87 -79 -86 -100 -158 -47 -158 12 0 34 12 48 28 27 27 98 165 98 189 0 7
21 28 47 48 l47 36 13 -51 c17 -68 66 -181 108 -250 68 -112 175 -182 175
-115 0 44 -81 185 -106 185 -19 0 -19 -1 20 -58 18 -28 38 -65 44 -84 l12 -33
-31 35 c-57 67 -103 145 -157 268 l-53 123 81 107 c108 143 151 232 112 232
-4 0 -20 -29 -36 -65z"/>
<path d="M436 866 c-21 -8 -64 -39 -94 -68 -34 -33 -56 -48 -59 -40 -8 20 -33
42 -50 42 -28 0 -70 -58 -91 -127 -23 -72 -27 -103 -14 -103 5 0 14 22 21 49
15 59 65 141 86 141 18 0 29 -41 21 -76 -4 -15 -27 -70 -52 -123 -45 -95 -78
-210 -67 -237 13 -35 57 4 101 91 23 46 62 201 62 246 0 47 24 92 70 132 52
45 94 54 144 33 70 -29 84 -127 28 -198 -35 -45 -91 -88 -115 -88 -10 0 -32
11 -49 25 -39 33 -78 34 -78 1 0 -18 11 -30 42 -48 36 -20 44 -31 61 -83 36
-110 62 -158 108 -206 53 -54 92 -70 116 -46 25 24 8 80 -45 149 -47 60 -72
81 -72 59 0 -7 18 -34 40 -62 59 -75 70 -140 15 -89 -21 19 -145 245 -145 263
0 3 21 12 46 21 68 23 109 59 140 121 22 47 26 64 21 107 -12 98 -97 148 -191
114z"/>
</g>
</svg>
